<svg version="1.2" xmlns="http://www.w3.org/2000/svg" viewBox="0 0 202 202" width="202" height="202">
	<title>dots-svg</title>
	<style>
		.s0 { fill: #bdbfc1 } 
	</style>
	<g id="Layer_x0020_1">
		<path id="Layer" fill-rule="evenodd" class="s0" d="m-1.2 313.9c-1.1-0.1-2-1-1.9-2.1 0-1.1 0.9-2 2-1.9 1.1 0 2 0.9 2 2-0.1 1.1-1 2-2.1 2zm3.4-173c-1.1 0-1.9-0.9-1.9-2 0-1.2 0.9-2 2-2 1.1 0 2 0.9 2 2 0 1.1-1 2-2.1 2zm1.7-85c-1.1 0-2-0.9-1.9-2 0-1.1 0.9-2 2-2 1.1 0 2 0.9 2 2-0.1 1.2-1 2-2.1 2zm0.9-43c-1.1 0-2-0.9-2-2 0-1.1 0.9-2 2-2 1.1 0 2 1 2 2.1 0 1.1-0.9 1.9-2 1.9zm198.9 3.9c-1.1 0-2-0.9-1.9-2 0-1.1 0.9-2 2-2 1.1 0.1 2 1 2 2.1-0.1 1.1-1 2-2.1 1.9zm-22-0.4c-1.1 0-2-0.9-1.9-2 0-1.1 0.9-2 2-2 1.1 0 2 0.9 2 2-0.1 1.2-1 2-2.1 2zm-22-0.4c-1.1 0-2-1-1.9-2.1 0-1.1 0.9-1.9 2-1.9 1.1 0 2 0.9 2 2-0.1 1.1-1 2-2.1 2zm-22-0.5c-1.1 0-1.9-0.9-1.9-2 0-1.1 0.9-2 2-2 1.1 0.1 2 1 2 2.1 0 1.1-1 2-2.1 1.9zm-22-0.4c-1.1 0-1.9-0.9-1.9-2 0-1.1 0.9-2 2-2 1.1 0 2 0.9 2 2 0 1.2-1 2-2.1 2zm-22-0.4c-1.1 0-1.9-1-1.9-2.1 0-1.1 0.9-1.9 2-1.9 1.1 0 2 0.9 2 2 0 1.1-0.9 2-2.1 2zm-22-0.5c-1.1 0-1.9-0.9-1.9-2 0-1.1 0.9-2 2-2 1.1 0.1 2 1 2 2.1 0 1.1-0.9 2-2.1 1.9zm-21.9-0.4c-1.2 0-2-0.9-2-2 0-1.1 0.9-2 2-2 1.1 0 2 0.9 2 2 0 1.2-0.9 2-2 2zm-22-0.4c-1.1-0.1-2-1-2-2.1 0-1.1 0.9-2 2-1.9 1.1 0 2 0.9 2 2 0 1.1-0.9 2-2 2zm-21.6-21.5c-1.1 0-2-0.9-2-2 0-1.1 0.9-2 2.1-2 1.1 0.1 1.9 1 1.9 2.1 0 1.1-0.9 2-2 1.9zm198.9 4c-1.1-0.1-1.9-1-1.9-2.1 0-1.1 0.9-2 2-1.9 1.1 0 2 0.9 2 2 0 1.1-1 2-2.1 2zm-22-0.5c-1.1 0-1.9-0.9-1.9-2 0-1.1 0.9-2 2-2 1.1 0.1 2 1 2 2.1 0 1.1-1 2-2.1 1.9zm-22-0.4c-1.1 0-1.9-0.9-1.9-2 0-1.1 0.9-2 2-2 1.1 0 2 0.9 2 2 0 1.1-0.9 2-2.1 2zm-22-0.4c-1.1-0.1-1.9-1-1.9-2.1 0-1.1 0.9-2 2-1.9 1.1 0 2 0.9 2 2 0 1.1-0.9 2-2.1 2zm-21.9-0.5c-1.2 0-2-0.9-2-2 0-1.1 0.9-2 2-2 1.1 0.1 2 1 2 2.1 0 1.1-0.9 2-2 1.9zm-22-0.4c-1.1 0-2-0.9-2-2 0-1.1 0.9-2 2-2 1.1 0 2 0.9 2 2 0 1.1-0.9 2-2 2zm-22-0.4c-1.1-0.1-2-1-2-2.1 0-1.1 0.9-2 2-1.9 1.1 0 2 0.9 2 2 0 1.1-0.9 2-2 2zm-22-0.5c-1.1 0-2-0.9-2-2 0-1.1 0.9-2 2-2 1.2 0.1 2 1 2 2.1 0 1.1-0.9 2-2 1.9zm-22-0.4c-1.1 0-2-0.9-2-2 0-1.2 0.9-2 2.1-2 1.1 0 1.9 0.9 1.9 2 0 1.1-0.9 2-2 2zm-22.9 42.6c-1.1-0.1-2-1-1.9-2.1 0-1.1 0.9-2 2-1.9 1.1 0 2 0.9 2 2-0.1 1.1-1 2-2.1 2zm199 3.9c-1.1 0-2-1-2-2.1 0.1-1.1 1-1.9 2.1-1.9 1.1 0 1.9 0.9 1.9 2 0 1.1-0.9 2-2 2zm-22-0.5c-1.1 0-2-0.9-2-2 0.1-1.1 1-2 2.1-2 1.1 0.1 2 1 1.9 2.1 0 1.1-0.9 2-2 1.9zm-22-0.4c-1.1 0-2-0.9-2-2 0.1-1.1 1-2 2.1-2 1.1 0 2 0.9 1.9 2 0 1.2-0.9 2-2 2zm-22-0.4c-1.1 0-2-1-2-2.1 0.1-1.1 1-1.9 2.1-1.9 1.1 0 2 0.9 1.9 2 0 1.1-0.9 2-2 2zm-22-0.5c-1.1 0-2-0.9-2-2 0.1-1.1 1-2 2.1-2 1.1 0.1 2 1 1.9 2.1 0 1.1-0.9 2-2 1.9zm-22-0.4c-1.1 0-2-0.9-1.9-2 0-1.1 0.9-2 2-2 1.1 0 2 0.9 1.9 2 0 1.2-0.9 2-2 2zm-22-0.4c-1.1 0-2-1-1.9-2.1 0-1.1 0.9-1.9 2-1.9 1.1 0 2 0.9 2 2-0.1 1.1-1 2-2.1 2zm-22-0.5c-1.1 0-2-0.9-1.9-2 0-1.1 0.9-2 2-2 1.1 0.1 2 1 2 2.1-0.1 1.1-1 2-2.1 1.9zm-22-0.4c-1.1 0-2-0.9-1.9-2 0-1.1 0.9-2 2-2 1.1 0 2 0.9 2 2-0.1 1.2-1 2-2.1 2zm176.6 24.5c-1.1 0-2-0.9-2-2 0-1.2 0.9-2 2.1-2 1.1 0 1.9 0.9 1.9 2 0 1.1-0.9 2-2 2zm-22-0.4c-1.1-0.1-2-1-2-2.1 0-1.1 1-2 2.1-1.9 1.1 0 1.9 0.9 1.9 2 0 1.1-0.9 2-2 2zm-22-0.5c-1.1 0-2-0.9-2-2 0-1.1 1-2 2.1-2 1.1 0 1.9 1 1.9 2.1 0 1.1-0.9 1.9-2 1.9zm-22-0.4c-1.1 0-2-0.9-2-2 0-1.2 1-2 2.1-2 1.1 0 1.9 0.9 1.9 2 0 1.1-0.9 2-2 2zm-22-0.4c-1.1-0.1-2-1-2-2.1 0.1-1.1 1-2 2.1-1.9 1.1 0 2 0.9 1.9 2 0 1.1-0.9 2-2 2zm-22-0.5c-1.1 0-2-0.9-2-2 0.1-1.1 1-2 2.1-2 1.1 0 2 1 1.9 2.1 0 1.1-0.9 1.9-2 1.9zm-22-0.4c-1.1 0-2-0.9-2-2.1 0.1-1.1 1-1.9 2.1-1.9 1.1 0 2 0.9 1.9 2 0 1.1-0.9 2-2 2zm-22-0.4c-1.1-0.1-2-1-2-2.1 0.1-1.1 1-2 2.1-1.9 1.1 0 2 0.9 1.9 2 0 1.1-0.9 2-2 2zm-22-0.5c-1.1 0-2-0.9-2-2 0.1-1.1 1-2 2.1-2 1.1 0 2 1 1.9 2.1 0 1.1-0.9 1.9-2 1.9zm-22.8 42.6c-1.1 0-2-1-2-2.1 0-1.1 0.9-1.9 2-1.9 1.1 0 2 0.9 2 2 0 1.1-0.9 2-2 2zm198.9 3.9c-1.1 0-2-0.9-1.9-2 0-1.1 0.9-2 2-2 1.1 0 2 0.9 2 2-0.1 1.1-1 2-2.1 2zm-22-0.4c-1.1-0.1-2-1-1.9-2.1 0-1.1 0.9-2 2-1.9 1.1 0 2 0.9 2 2-0.1 1.1-1 2-2.1 2zm-22-0.5c-1.1 0-1.9-0.9-1.9-2 0-1.1 0.9-2 2-2 1.1 0.1 2 1 2 2.1 0 1.1-1 2-2.1 1.9zm-22-0.4c-1.1 0-1.9-0.9-1.9-2 0-1.1 0.9-2 2-2 1.1 0 2 0.9 2 2 0 1.1-1 2-2.1 2zm-22-0.4c-1.1-0.1-1.9-1-1.9-2.1 0-1.1 0.9-2 2-1.9 1.1 0 2 0.9 2 2 0 1.1-1 2-2.1 2zm-22-0.5c-1.1 0-1.9-0.9-1.9-2 0-1.1 0.9-2 2-2 1.1 0.1 2 1 2 2.1 0 1.1-0.9 2-2.1 1.9zm-21.9-0.4c-1.2 0-2-0.9-2-2 0-1.1 0.9-2 2-2 1.1 0 2 0.9 2 2 0 1.1-0.9 2-2 2zm-22-0.4c-1.1-0.1-2-1-2-2.1 0-1.1 0.9-2 2-1.9 1.1 0 2 0.9 2 2 0 1.1-0.9 2-2 2zm-22-0.5c-1.1 0-2-0.9-2-2 0-1.1 0.9-2 2-2 1.1 0.1 2 1 2 2.1 0 1.1-0.9 2-2 1.9zm-21.6-21.4c-1.1 0-2-0.9-2-2 0-1.1 1-2 2.1-2 1.1 0 1.9 0.9 1.9 2 0 1.1-0.9 2-2 2zm198.9 3.9c-1.1 0-1.9-0.9-1.9-2 0-1.1 0.9-2 2-2 1.1 0 2 1 2 2.1 0 1.1-1 1.9-2.1 1.9zm-22-0.4c-1.1 0-1.9-0.9-1.9-2 0-1.2 0.9-2 2-2 1.1 0 2 0.9 2 2 0 1.1-0.9 2-2.1 2zm-22-0.4c-1.1-0.1-1.9-1-1.9-2.1 0-1.1 0.9-2 2-1.9 1.1 0 2 0.9 2 2 0 1.1-0.9 2-2.1 2zm-21.9-0.5c-1.2 0-2-0.9-2-2 0-1.1 0.9-2 2-2 1.1 0 2 1 2 2.1 0 1.1-0.9 1.9-2 1.9zm-22-0.4c-1.1 0-2-0.9-2-2 0-1.2 0.9-2 2-2 1.1 0 2 0.9 2 2 0 1.1-0.9 2-2 2zm-22-0.4c-1.1-0.1-2-1-2-2.1 0-1.1 0.9-2 2-1.9 1.1 0 2 0.9 2 2 0 1.1-0.9 2-2 2zm-22-0.5c-1.1 0-2-0.9-2-2 0-1.1 0.9-2 2-2 1.2 0 2 1 2 2.1 0 1.1-0.9 1.9-2 1.9zm-22-0.4c-1.1 0-2-0.9-2-2 0-1.2 0.9-2 2-2 1.2 0 2 0.9 2 2 0 1.1-0.9 2-2 2zm-22-0.4c-1.1-0.1-2-1-2-2.1 0-1.1 0.9-2 2.1-1.9 1.1 0 1.9 0.9 1.9 2 0 1.1-0.9 2-2 2zm-22.9 42.5c-1.1 0-2-0.9-1.9-2 0-1.1 0.9-2 2-2 1.1 0 2 0.9 2 2.1-0.1 1.1-1 1.9-2.1 1.9zm199 3.9c-1.1 0-2-0.9-2-2 0.1-1.1 1-2 2.1-2 1.1 0.1 2 1 1.9 2.1 0 1.1-0.9 2-2 1.9zm-22-0.4c-1.1 0-2-0.9-2-2 0.1-1.1 1-2 2.1-2 1.1 0 2 0.9 1.9 2 0 1.2-0.9 2-2 2zm-22-0.4c-1.1-0.1-2-1-2-2.1 0.1-1.1 1-2 2.1-1.9 1.1 0 2 0.9 1.9 2 0 1.1-0.9 2-2 2zm-22-0.5c-1.1 0-2-0.9-2-2 0.1-1.1 1-2 2.1-2 1.1 0.1 2 1 1.9 2.1 0 1.1-0.9 2-2 1.9zm-22-0.4c-1.1 0-2-0.9-2-2 0.1-1.1 1-2 2.1-2 1.1 0 2 0.9 1.9 2 0 1.1-0.9 2-2 2zm-22-0.4c-1.1-0.1-2-1-1.9-2.1 0-1.1 0.9-2 2-1.9 1.1 0 2 0.9 2 2-0.1 1.1-1 2-2.1 2zm-22-0.5c-1.1 0-2-0.9-1.9-2 0-1.1 0.9-2 2-2 1.1 0.1 2 1 2 2.1-0.1 1.1-1 2-2.1 1.9zm-22-0.4c-1.1 0-2-0.9-1.9-2 0-1.1 0.9-2 2-2 1.1 0 2 0.9 2 2-0.1 1.1-1 2-2.1 2zm-22-0.4c-1.1-0.1-2-1-1.9-2.1 0-1.1 0.9-2 2-1.9 1.1 0 2 0.9 2 2-0.1 1.1-1 2-2.1 2zm176.6 24.5c-1.1-0.1-2-1-2-2.1 0-1.1 1-2 2.1-1.9 1.1 0 1.9 0.9 1.9 2 0 1.1-0.9 2-2 2zm-22-0.5c-1.1 0-2-0.9-2-2 0-1.1 1-2 2.1-2 1.1 0 1.9 1 1.9 2.1 0 1.1-0.9 1.9-2 1.9zm-22-0.4c-1.1 0-2-0.9-2-2.1 0-1.1 1-1.9 2.1-1.9 1.1 0 1.9 0.9 1.9 2 0 1.1-0.9 2-2 2zm-22-0.4c-1.1-0.1-2-1-2-2.1 0.1-1.1 1-2 2.1-1.9 1.1 0 2 0.9 1.9 2 0 1.1-0.9 2-2 2zm-22-0.5c-1.1 0-2-0.9-2-2 0.1-1.1 1-2 2.1-2 1.1 0 2 1 1.9 2.1 0 1.1-0.9 1.9-2 1.9zm-22-0.4c-1.1 0-2-0.9-2-2.1 0.1-1.1 1-1.9 2.1-1.9 1.1 0 2 0.9 1.9 2 0 1.1-0.9 2-2 2zm-22-0.4c-1.1-0.1-2-1-2-2.1 0.1-1.1 1-2 2.1-1.9 1.1 0 2 0.9 1.9 2 0 1.1-0.9 2-2 2zm-22-0.5c-1.1 0-2-0.9-2-2 0.1-1.1 1-2 2.1-2 1.1 0 2 1 1.9 2.1 0 1.1-0.9 1.9-2 1.9zm-22-0.4c-1.1 0-2-0.9-1.9-2.1 0-1.1 0.9-1.9 2-1.9 1.1 0 2 0.9 2 2-0.1 1.1-1 2-2.1 2zm-23.7 87.5c-1.1 0-2-0.9-2-2 0-1.1 1-2 2.1-2 1.1 0.1 1.9 1 1.9 2.1 0 1.1-0.9 2-2 1.9zm0.8-43c-1.1 0-2-0.9-1.9-2 0-1.1 0.9-2 2-2 1.1 0.1 2 1 2 2.1-0.1 1.1-1 2-2.1 1.9zm199 4c-1.1-0.1-2-1-2-2.1 0.1-1.1 1-2 2.1-1.9 1.1 0 2 0.9 1.9 2 0 1.1-0.9 2-2 2zm-22-0.5c-1.1 0-2-0.9-2-2 0.1-1.1 1-2 2.1-2 1.1 0.1 2 1 1.9 2.1 0 1.1-0.9 2-2 1.9zm-22-0.4c-1.1 0-2-0.9-2-2 0.1-1.1 1-2 2.1-2 1.1 0 2 0.9 1.9 2 0 1.1-0.9 2-2 2zm-22-0.4c-1.1-0.1-2-1-2-2.1 0.1-1.1 1-2 2.1-1.9 1.1 0 2 0.9 1.9 2 0 1.1-0.9 2-2 2zm-22-0.5c-1.1 0-2-0.9-2-2 0.1-1.1 1-2 2.1-2 1.1 0.1 2 1 1.9 2.1 0 1.1-0.9 2-2 1.9zm-22-0.4c-1.1 0-2-0.9-1.9-2 0-1.1 0.9-2 2-2 1.1 0 2 0.9 2 2-0.1 1.1-1 2-2.1 2zm-22-0.4c-1.1-0.1-2-1-1.9-2.1 0-1.1 0.9-2 2-1.9 1.1 0 2 0.9 2 2-0.1 1.1-1 2-2.1 2zm-22-0.5c-1.1 0-2-0.9-1.9-2 0-1.1 0.9-2 2-2 1.1 0.1 2 1 2 2.1-0.1 1.1-1 2-2.1 1.9zm-22-0.4c-1.1 0-2-0.9-1.9-2 0-1.2 0.9-2 2-2 1.1 0 2 0.9 2 2-0.1 1.1-1 2-2.1 2zm-21.6-21.4c-1.1-0.1-1.9-1-1.9-2.1 0-1.1 0.9-2 2-1.9 1.1 0 2 0.9 2 2 0 1.1-1 2-2.1 2zm199 3.9c-1.1 0-2-0.9-2-2.1 0.1-1.1 1-1.9 2.1-1.9 1.1 0 2 0.9 1.9 2 0 1.1-0.9 2-2 2zm-22-0.4c-1.1-0.1-2-1-2-2.1 0.1-1.1 1-2 2.1-1.9 1.1 0 2 0.9 1.9 2 0 1.1-0.9 2-2 2zm-22-0.5c-1.1 0-2-0.9-1.9-2 0-1.1 0.9-2 2-2 1.1 0 2 1 2 2.1-0.1 1.1-1 1.9-2.1 1.9zm-22-0.4c-1.1 0-2-0.9-1.9-2.1 0-1.1 0.9-1.9 2-1.9 1.1 0 2 0.9 2 2-0.1 1.1-1 2-2.1 2zm-22-0.4c-1.1-0.1-2-1-1.9-2.1 0-1.1 0.9-2 2-1.9 1.1 0 2 0.9 2 2-0.1 1.1-1 2-2.1 2zm-22-0.5c-1.1 0-2-0.9-1.9-2 0-1.1 0.9-2 2-2 1.1 0 2 1 2 2.1-0.1 1.1-1 1.9-2.1 1.9zm-22-0.4c-1.1 0-2-0.9-1.9-2.1 0-1.1 0.9-1.9 2-1.9 1.1 0 2 0.9 2 2-0.1 1.1-1 2-2.1 2zm-22-0.4c-1.1-0.1-1.9-1-1.9-2.1 0-1.1 0.9-2 2-1.9 1.1 0 2 0.9 2 2 0 1.1-1 2-2.1 2zm-22-0.5c-1.1 0-1.9-0.9-1.9-2 0-1.1 0.9-2 2-2 1.1 0 2 1 2 2.1 0 1.1-1 1.9-2.1 1.9zm-22.8 42.6c-1.1 0-2-1-2-2.1 0.1-1.1 1-1.9 2.1-1.9 1.1 0 2 0.9 1.9 2 0 1.1-0.9 2-2 2zm199 3.9c-1.1 0-2-0.9-2-2 0-1.1 0.9-2 2-2 1.1 0 2 0.9 2 2 0 1.1-0.9 2-2 2zm-22-0.4c-1.1-0.1-2-1-2-2.1 0-1.1 0.9-2 2-1.9 1.1 0 2 0.9 2 2 0 1.1-0.9 2-2 2zm-22-0.5c-1.1 0-2-0.9-2-2 0-1.1 0.9-2 2-2 1.1 0.1 2 1 2 2.1 0 1.1-0.9 2-2 1.9zm-22-0.4c-1.1 0-2-0.9-2-2 0-1.1 0.9-2 2-2 1.2 0 2 0.9 2 2 0 1.1-0.9 2-2 2zm-22-0.4c-1.1-0.1-2-1-2-2.1 0-1.1 0.9-2 2.1-1.9 1.1 0 1.9 0.9 1.9 2 0 1.1-0.9 2-2 2zm-22-0.5c-1.1 0-2-0.9-2-2 0-1.1 1-2 2.1-2 1.1 0.1 1.9 1 1.9 2.1 0 1.1-0.9 2-2 1.9zm-22-0.4c-1.1 0-2-0.9-2-2 0-1.1 1-2 2.1-2 1.1 0 1.9 0.9 1.9 2 0 1.1-0.9 2-2 2zm-22-0.4c-1.1-0.1-2-1-2-2.1 0-1.1 1-2 2.1-1.9 1.1 0 1.9 0.9 1.9 2 0 1.1-0.9 2-2 2zm-22-0.5c-1.1 0-2-0.9-2-2 0.1-1.1 1-2 2.1-2 1.1 0.1 2 1 1.9 2.1 0 1.1-0.9 2-2 1.9zm176.5 24.5c-1.1 0-1.9-0.9-1.9-2 0-1.1 0.9-2 2-2 1.1 0 2 0.9 2 2.1 0 1.1-1 1.9-2.1 1.9zm-22-0.4c-1.1 0-1.9-1-1.9-2.1 0-1.1 0.9-1.9 2-1.9 1.1 0 2 0.9 2 2 0 1.1-0.9 2-2.1 2zm-21.9-0.5c-1.2 0-2-0.9-2-2 0-1.1 0.9-2 2-2 1.1 0.1 2 1 2 2.1 0 1.1-0.9 2-2 1.9zm-22-0.4c-1.2 0-2-0.9-2-2 0-1.1 0.9-2 2-2 1.1 0 2 0.9 2 2.1 0 1.1-0.9 1.9-2 1.9zm-22-0.4c-1.1 0-2-1-2-2.1 0-1.1 0.9-1.9 2-1.9 1.1 0 2 0.9 2 2 0 1.1-0.9 2-2 2zm-22-0.5c-1.1 0-2-0.9-2-2 0-1.1 0.9-2 2-2 1.1 0.1 2 1 2 2.1 0 1.1-0.9 2-2 1.9zm-22-0.4c-1.1 0-2-0.9-2-2 0-1.1 0.9-2 2-2 1.2 0 2 0.9 2 2.1 0 1.1-0.9 1.9-2 1.9zm-22-0.4c-1.1 0-2-1-2-2.1 0-1.1 0.9-1.9 2.1-1.9 1.1 0 1.9 0.9 1.9 2 0 1.1-0.9 2-2 2zm-22-0.5c-1.1 0-2-0.9-2-2 0-1.1 0.9-2 2.1-2 1.1 0.1 1.9 1 1.9 2.1 0 1.1-0.9 2-2 1.9zm-22.9 42.6c-1.1 0-1.9-0.9-1.9-2 0-1.1 0.9-2 2-2 1.1 0 2 0.9 2 2-0.1 1.1-1 2-2.1 2zm199 3.9c-1.1 0-2-0.9-2-2 0.1-1.1 1-2 2.1-2 1.1 0 2 1 1.9 2.1 0 1.1-0.9 1.9-2 1.9zm-22-0.4c-1.1 0-2-0.9-2-2 0.1-1.2 1-2 2.1-2 1.1 0 2 0.9 1.9 2 0 1.1-0.9 2-2 2zm-22-0.4c-1.1-0.1-2-1-2-2.1 0.1-1.1 1-2 2.1-1.9 1.1 0 2 0.9 1.9 2 0 1.1-0.9 2-2 2zm-22-0.5c-1.1 0-2-0.9-2-2 0.1-1.1 1-2 2.1-2 1.1 0 2 1 1.9 2.1 0 1.1-0.9 1.9-2 1.9zm-22-0.4c-1.1 0-2-0.9-1.9-2 0-1.2 0.9-2 2-2 1.1 0 2 0.9 1.9 2 0 1.1-0.9 2-2 2zm-22-0.4c-1.1-0.1-2-1-1.9-2.1 0-1.1 0.9-2 2-1.9 1.1 0 2 0.9 2 2-0.1 1.1-1 2-2.1 2zm-22-0.5c-1.1 0-2-0.9-1.9-2 0-1.1 0.9-2 2-2 1.1 0 2 1 2 2.1-0.1 1.1-1 1.9-2.1 1.9zm-22-0.4c-1.1 0-2-0.9-1.9-2 0-1.2 0.9-2 2-2 1.1 0 2 0.9 2 2-0.1 1.1-1 2-2.1 2zm-22-0.4c-1.1-0.1-2-1-1.9-2.1 0-1.1 0.9-2 2-1.9 1.1 0 2 0.9 2 2-0.1 1.1-1 2-2.1 2zm-21.6-21.5c-1.1 0-1.9-0.9-1.9-2 0-1.1 0.9-2 2-2 1.1 0 2 1 2 2.1 0 1.1-0.9 1.9-2.1 1.9zm199 4c-1.1-0.1-2-1-2-2.1 0.1-1.1 1-2 2.1-1.9 1.1 0 2 0.9 1.9 2 0 1.1-0.9 2-2 2zm-22-0.5c-1.1 0-2-0.9-1.9-2 0-1.1 0.9-2 2-2 1.1 0 2 1 2 2.1-0.1 1.1-1 1.9-2.1 1.9zm-22-0.4c-1.1 0-2-0.9-1.9-2.1 0-1.1 0.9-1.9 2-1.9 1.1 0 2 0.9 2 2-0.1 1.1-1 2-2.1 2zm-22-0.5c-1.1 0-2-0.9-1.9-2 0-1.1 0.9-2 2-1.9 1.1 0 2 0.9 2 2-0.1 1.1-1 2-2.1 1.9zm-22-0.4c-1.1 0-2-0.9-1.9-2 0-1.1 0.9-2 2-2 1.1 0 2 0.9 2 2.1-0.1 1.1-1 1.9-2.1 1.9zm-22-0.4c-1.1 0-2-1-1.9-2.1 0-1.1 0.9-1.9 2-1.9 1.1 0 2 0.9 2 2-0.1 1.1-1 2-2.1 2zm-22-0.5c-1.1 0-1.9-0.9-1.9-2 0-1.1 0.9-2 2-2 1.1 0.1 2 1 2 2.1 0 1.1-1 2-2.1 1.9zm-22-0.4c-1.1 0-1.9-0.9-1.9-2 0-1.1 0.9-2 2-2 1.1 0 2 0.9 2 2.1 0 1.1-1 1.9-2.1 1.9zm-22-0.4c-1.1 0-1.9-1-1.9-2.1 0-1.1 0.9-1.9 2-1.9 1.1 0 2 0.9 2 2 0 1.1-1 2-2.1 2zm-22.8 42.5c-1.1 0-2-0.9-2-2 0.1-1.1 1-2 2.1-2 1.1 0.1 2 1 1.9 2.1 0 1.1-0.9 2-2 1.9zm199 4c-1.1-0.1-2-1-2-2.1 0-1.1 0.9-2 2-1.9 1.1 0 2 0.9 2 2 0 1.1-0.9 2-2 2zm-22-0.5c-1.1 0-2-0.9-2-2 0-1.1 0.9-2 2-2 1.1 0.1 2 1 2 2.1 0 1.1-0.9 2-2 1.9zm-22-0.4c-1.1 0-2-0.9-2-2 0-1.2 0.9-2 2-2 1.2 0 2 0.9 2 2 0 1.1-0.9 2-2 2zm-22-0.4c-1.1-0.1-2-1-2-2.1 0-1.1 0.9-2 2.1-1.9 1.1 0 1.9 0.9 1.9 2 0 1.1-0.9 2-2 2zm-22-0.5c-1.1 0-2-0.9-2-2 0-1.1 0.9-2 2.1-2 1.1 0 1.9 1 1.9 2.1 0 1.1-0.9 1.9-2 1.9zm-22-0.4c-1.1 0-2-0.9-2-2 0-1.2 1-2 2.1-2 1.1 0 1.9 0.9 1.9 2 0 1.1-0.9 2-2 2zm-22-0.4c-1.1-0.1-2-1-2-2.1 0-1.1 1-2 2.1-1.9 1.1 0 1.9 0.9 1.9 2 0 1.1-0.9 2-2 2zm-22-0.5c-1.1 0-2-0.9-2-2 0.1-1.1 1-2 2.1-2 1.1 0 2 1 1.9 2.1 0 1.1-0.9 1.9-2 1.9zm-22-0.4c-1.1 0-2-0.9-2-2 0.1-1.2 1-2 2.1-2 1.1 0 2 0.9 1.9 2 0 1.1-0.9 2-2 2zm176.5 24.5c-1.1 0-1.9-1-1.9-2.1 0-1.1 0.9-1.9 2-1.9 1.1 0 2 0.9 2 2 0 1.1-0.9 2-2.1 2zm-22-0.5c-1.1 0-1.9-0.9-1.9-2 0-1.1 0.9-2 2-2 1.1 0.1 2 1 2 2.1 0 1.1-0.9 2-2.1 1.9zm-21.9-0.4c-1.2 0-2-0.9-2-2 0-1.1 0.9-2 2-2 1.1 0 2 0.9 2 2.1 0 1.1-0.9 1.9-2 1.9zm-22-0.4c-1.1 0-2-1-2-2.1 0-1.1 0.9-1.9 2-1.9 1.1 0 2 0.9 2 2 0 1.1-0.9 2-2 2zm-22-0.5c-1.1 0-2-0.9-2-2 0-1.1 0.9-2 2-2 1.1 0.1 2 1 2 2.1 0 1.1-0.9 2-2 1.9zm-22-0.4c-1.1 0-2-0.9-2-2 0-1.1 0.9-2 2-2 1.2 0 2 0.9 2 2 0 1.2-0.9 2-2 2zm-22-0.4c-1.1 0-2-1-2-2.1 0-1.1 0.9-1.9 2-1.9 1.2 0 2 0.9 2 2 0 1.1-0.9 2-2 2zm-22-0.5c-1.1 0-2-0.9-2-2 0-1.1 0.9-2 2.1-2 1.1 0.1 1.9 1 1.9 2.1 0 1.1-0.9 2-2 1.9zm-22-0.4c-1.1 0-2-0.9-2-2 0-1.1 1-2 2.1-2 1.1 0 1.9 0.9 1.9 2 0 1.2-0.9 2-2 2z"/>
	</g>
</svg>